<svg xmlns="http://www.w3.org/2000/svg" width="26.444" height="38.996" viewBox="0 0 26.444 38.996">
  <g id="Group_15" data-name="Group 15" transform="translate(0 0)">
    <g id="Group_9" data-name="Group 9">
      <g id="Group_5" data-name="Group 5">
        <g id="Group_315" data-name="Group 315">
          <path id="Union_2" data-name="Union 2" d="M8807.563-739.631c0-.02,0-.042,0-.062-.007-.483,0-.968,0-1.45v-6.262c-.562-.355-1.114-.73-1.668-1.1q-2.9-1.943-5.785-3.925c-1.011-.693-2.027-1.381-3.033-2.083.591,5.114,4.107,9.329,8.737,10.271a.823.823,0,0,1,.642.97.824.824,0,0,1-.97.642,12.3,12.3,0,0,1-7.127-4.483,14.24,14.24,0,0,1-3.011-8.681c-.135-8.349,9.514-19.62,12.018-21.56a1.68,1.68,0,0,1,1.022-.449,2.216,2.216,0,0,1,1.3.618,40.1,40.1,0,0,1,7.155,8.172c2.276,3.361,4.981,8.38,4.948,13.213a13.505,13.505,0,0,1-3.068,8.94,13.271,13.271,0,0,1-7.421,4.258.763.763,0,0,1-.173.018.822.822,0,0,1-.8-.649.826.826,0,0,1,.633-.976,11.038,11.038,0,0,0,9.155-10.559l-.786.547q-2.925,2.039-5.871,4.049c-1.406.962-2.8,1.956-4.249,2.854v7.689a.837.837,0,0,1-.821.821h-.031A.834.834,0,0,1,8807.563-739.631Zm1.645-12.6v2.954c.334-.222.665-.448,1-.671q2.956-1.993,5.883-4.023c1.346-.93,2.7-1.853,4.029-2.808a18.3,18.3,0,0,0-1.592-5.906c-.391.274-.784.543-1.178.811q-2.325,1.594-4.674,3.155c-1.146.766-2.291,1.544-3.465,2.269Zm-10.641-3.255q2.877,1.993,5.772,3.952c1.072.727,2.137,1.471,3.224,2.179v-7.181c-.474-.3-.939-.6-1.406-.911q-2.354-1.544-4.685-3.126c-.943-.638-1.893-1.27-2.825-1.925a17.88,17.88,0,0,0-1.638,5.928C8797.525-756.2,8798.047-755.842,8798.567-755.483Zm10.641-7.492v4.58l.713-.466q2.354-1.548,4.685-3.128c1.073-.725,2.152-1.443,3.207-2.194a38.6,38.6,0,0,0-3.065-4.964l-.041-.057c-1.816,1.231-3.63,2.478-5.5,3.629Zm-8.818-.314q2.325,1.594,4.674,3.155c.83.553,1.659,1.113,2.5,1.656v-7.181c-1.749-1.079-3.469-2.215-5.176-3.363l-.181.262A42.921,42.921,0,0,0,8799.36-764C8799.7-763.76,8800.046-763.525,8800.39-763.29Zm8.818-12.053v7.829c1.523-.97,3.017-1.992,4.512-3.005a39.043,39.043,0,0,0-4.512-4.934Zm-1.645,7.748v-7.736a44.246,44.246,0,0,0-4.222,4.975C8804.737-769.419,8806.141-768.491,8807.563-767.595Z" transform="translate(-8795.348 777.805)" fill="#66b43d"/>
        </g>
      </g>
    </g>
  </g>
</svg>
